<?xml version="1.0" encoding="UTF-8"?>
<svg width="21px" height="21px" viewBox="0 0 21 21" version="1.1" xmlns="http://www.w3.org/2000/svg" xmlns:xlink="http://www.w3.org/1999/xlink">
    <!-- Generator: Sketch 62 (91390) - https://sketch.com -->
    <title>Combined shape 4235</title>
    <desc>Created with Sketch.</desc>
    <g id="Styleguide" stroke="none" stroke-width="1" fill="none" fill-rule="evenodd">
        <g transform="translate(-942.000000, -1579.000000)" fill="#FFFFFF" id="Главная-кнопка-листалка">
            <g transform="translate(72.000000, 1277.000000)">
                <g id="Листалка" transform="translate(815.000000, 154.000000)">
                    <g id="Листалка-нажатие" transform="translate(0.000000, 147.000000)">
                        <path d="M65.49977,1.227303 C71.172766,1.227303 75.771754,5.826314 75.771754,11.499586 C75.771754,17.172352 71.172766,21.771386 65.49977,21.771386 C59.826659,21.771386 55.227763,17.172352 55.227763,11.499586 C55.227763,5.826314 59.826659,1.227303 65.49977,1.227303 Z M65.49977,3.131703 C60.878495,3.131703 57.132347,6.878196 57.132347,11.499586 C57.132347,16.120493 60.878495,19.866986 65.49977,19.866986 C70.121022,19.866986 73.867262,16.120493 73.867262,11.499586 C73.867262,6.878196 70.121022,3.131703 65.49977,3.131703 Z" id="Combined-shape-4235"></path>
                    </g>
                </g>
            </g>
        </g>
    </g>
</svg>